<?xml version="1.0" encoding="UTF-8"?>
<svg xmlns="http://www.w3.org/2000/svg" xmlns:xlink="http://www.w3.org/1999/xlink" width="348.655pt" height="51.261pt" viewBox="0 0 348.655 51.261" version="1.1">
<defs>
<clipPath id="clip1">
  <path d="M 0 0 L 91 0 L 91 51.261719 L 0 51.261719 Z M 0 0 "/>
</clipPath>
<clipPath id="clip2">
  <path d="M 75 0 L 149 0 L 149 51.261719 L 75 51.261719 Z M 75 0 "/>
</clipPath>
<clipPath id="clip3">
  <path d="M 117 0 L 191 0 L 191 51.261719 L 117 51.261719 Z M 117 0 "/>
</clipPath>
<clipPath id="clip4">
  <path d="M 160 0 L 234 0 L 234 51.261719 L 160 51.261719 Z M 160 0 "/>
</clipPath>
<clipPath id="clip5">
  <path d="M 231 0 L 305 0 L 305 51.261719 L 231 51.261719 Z M 231 0 "/>
</clipPath>
<clipPath id="clip6">
  <path d="M 273 0 L 347 0 L 347 51.261719 L 273 51.261719 Z M 273 0 "/>
</clipPath>
<clipPath id="clip7">
  <path d="M 0 0 L 60 0 L 60 51.261719 L 0 51.261719 Z M 0 0 "/>
</clipPath>
<clipPath id="clip8">
  <path d="M 22 0 L 112 0 L 112 51.261719 L 22 51.261719 Z M 22 0 "/>
</clipPath>
<clipPath id="clip9">
  <path d="M 40 0 L 131 0 L 131 51.261719 L 40 51.261719 Z M 40 0 "/>
</clipPath>
<clipPath id="clip10">
  <path d="M 178 0 L 268 0 L 268 51.261719 L 178 51.261719 Z M 178 0 "/>
</clipPath>
</defs>
<g id="surface1">
<path style=" stroke:none;fill-rule:nonzero;fill:rgb(100%,69.999695%,39.99939%);fill-opacity:1;" d="M 54.84375 25.628906 C 54.84375 17.925781 48.597656 11.679688 40.894531 11.679688 C 33.191406 11.679688 26.949219 17.925781 26.949219 25.628906 C 26.949219 33.332031 33.191406 39.574219 40.894531 39.574219 C 48.597656 39.574219 54.84375 33.332031 54.84375 25.628906 Z M 54.84375 25.628906 "/>
<g clip-path="url(#clip1)" clip-rule="nonzero">
<path style="fill:none;stroke-width:2.49069;stroke-linecap:butt;stroke-linejoin:miter;stroke:rgb(100%,50%,0%);stroke-opacity:1;stroke-miterlimit:10;" d="M 98.98875 255.120094 C 98.98875 262.823219 92.742656 269.069313 85.039531 269.069313 C 77.336406 269.069313 71.094219 262.823219 71.094219 255.120094 C 71.094219 247.416969 77.336406 241.174781 85.039531 241.174781 C 92.742656 241.174781 98.98875 247.416969 98.98875 255.120094 Z M 98.98875 255.120094 " transform="matrix(1,0,0,-1,-44.145,280.749)"/>
</g>
<path style=" stroke:none;fill-rule:nonzero;fill:rgb(100%,19.999695%,19.999695%);fill-opacity:1;" d="M 125.710938 25.628906 C 125.710938 17.925781 119.464844 11.679688 111.761719 11.679688 C 104.058594 11.679688 97.816406 17.925781 97.816406 25.628906 C 97.816406 33.332031 104.058594 39.574219 111.761719 39.574219 C 119.464844 39.574219 125.710938 33.332031 125.710938 25.628906 Z M 125.710938 25.628906 "/>
<g clip-path="url(#clip2)" clip-rule="nonzero">
<path style="fill:none;stroke-width:1.59404;stroke-linecap:butt;stroke-linejoin:miter;stroke:rgb(75%,0%,25%);stroke-opacity:1;stroke-miterlimit:10;" d="M 169.855938 255.120094 C 169.855938 262.823219 163.609844 269.069313 155.906719 269.069313 C 148.203594 269.069313 141.961406 262.823219 141.961406 255.120094 C 141.961406 247.416969 148.203594 241.174781 155.906719 241.174781 C 163.609844 241.174781 169.855938 247.416969 169.855938 255.120094 Z M 169.855938 255.120094 " transform="matrix(1,0,0,-1,-44.145,280.749)"/>
</g>
<path style=" stroke:none;fill-rule:nonzero;fill:rgb(100%,19.999695%,19.999695%);fill-opacity:1;" d="M 168.230469 25.628906 C 168.230469 17.925781 161.984375 11.679688 154.28125 11.679688 C 146.578125 11.679688 140.335938 17.925781 140.335938 25.628906 C 140.335938 33.332031 146.578125 39.574219 154.28125 39.574219 C 161.984375 39.574219 168.230469 33.332031 168.230469 25.628906 Z M 168.230469 25.628906 "/>
<g clip-path="url(#clip3)" clip-rule="nonzero">
<path style="fill:none;stroke-width:1.59404;stroke-linecap:butt;stroke-linejoin:miter;stroke:rgb(75%,0%,25%);stroke-opacity:1;stroke-miterlimit:10;" d="M 212.375469 255.120094 C 212.375469 262.823219 206.129375 269.069313 198.42625 269.069313 C 190.723125 269.069313 184.480938 262.823219 184.480938 255.120094 C 184.480938 247.416969 190.723125 241.174781 198.42625 241.174781 C 206.129375 241.174781 212.375469 247.416969 212.375469 255.120094 Z M 212.375469 255.120094 " transform="matrix(1,0,0,-1,-44.145,280.749)"/>
</g>
<path style=" stroke:none;fill-rule:nonzero;fill:rgb(100%,19.999695%,19.999695%);fill-opacity:1;" d="M 210.75 25.628906 C 210.75 17.925781 204.507812 11.679688 196.804688 11.679688 C 189.097656 11.679688 182.855469 17.925781 182.855469 25.628906 C 182.855469 33.332031 189.097656 39.574219 196.804688 39.574219 C 204.507812 39.574219 210.75 33.332031 210.75 25.628906 Z M 210.75 25.628906 "/>
<g clip-path="url(#clip4)" clip-rule="nonzero">
<path style="fill:none;stroke-width:1.59404;stroke-linecap:butt;stroke-linejoin:miter;stroke:rgb(75%,0%,25%);stroke-opacity:1;stroke-miterlimit:10;" d="M 254.895 255.120094 C 254.895 262.823219 248.652813 269.069313 240.949688 269.069313 C 233.242656 269.069313 227.000469 262.823219 227.000469 255.120094 C 227.000469 247.416969 233.242656 241.174781 240.949688 241.174781 C 248.652813 241.174781 254.895 247.416969 254.895 255.120094 Z M 254.895 255.120094 " transform="matrix(1,0,0,-1,-44.145,280.749)"/>
</g>
<path style=" stroke:none;fill-rule:nonzero;fill:rgb(69.999695%,39.99939%,69.999695%);fill-opacity:1;" d="M 281.617188 25.628906 C 281.617188 17.925781 275.375 11.679688 267.667969 11.679688 C 259.964844 11.679688 253.722656 17.925781 253.722656 25.628906 C 253.722656 33.332031 259.964844 39.574219 267.667969 39.574219 C 275.375 39.574219 281.617188 33.332031 281.617188 25.628906 Z M 281.617188 25.628906 "/>
<g clip-path="url(#clip5)" clip-rule="nonzero">
<path style="fill:none;stroke-width:1.59404;stroke-linecap:butt;stroke-linejoin:miter;stroke:rgb(50%,0%,50%);stroke-opacity:1;stroke-miterlimit:10;" d="M 325.762187 255.120094 C 325.762187 262.823219 319.52 269.069313 311.812969 269.069313 C 304.109844 269.069313 297.867656 262.823219 297.867656 255.120094 C 297.867656 247.416969 304.109844 241.174781 311.812969 241.174781 C 319.52 241.174781 325.762187 247.416969 325.762187 255.120094 Z M 325.762187 255.120094 " transform="matrix(1,0,0,-1,-44.145,280.749)"/>
</g>
<path style=" stroke:none;fill-rule:nonzero;fill:rgb(69.999695%,39.99939%,69.999695%);fill-opacity:1;" d="M 324.136719 25.628906 C 324.136719 17.925781 317.894531 11.679688 310.191406 11.679688 C 302.488281 11.679688 296.242188 17.925781 296.242188 25.628906 C 296.242188 33.332031 302.488281 39.574219 310.191406 39.574219 C 317.894531 39.574219 324.136719 33.332031 324.136719 25.628906 Z M 324.136719 25.628906 "/>
<g clip-path="url(#clip6)" clip-rule="nonzero">
<path style="fill:none;stroke-width:1.59404;stroke-linecap:butt;stroke-linejoin:miter;stroke:rgb(50%,0%,50%);stroke-opacity:1;stroke-miterlimit:10;" d="M 368.281719 255.120094 C 368.281719 262.823219 362.039531 269.069313 354.336406 269.069313 C 346.633281 269.069313 340.387187 262.823219 340.387187 255.120094 C 340.387187 247.416969 346.633281 241.174781 354.336406 241.174781 C 362.039531 241.174781 368.281719 247.416969 368.281719 255.120094 Z M 368.281719 255.120094 " transform="matrix(1,0,0,-1,-44.145,280.749)"/>
</g>
<g clip-path="url(#clip7)" clip-rule="nonzero">
<path style="fill:none;stroke-width:2.98883;stroke-linecap:butt;stroke-linejoin:miter;stroke:rgb(0%,0%,0%);stroke-opacity:1;stroke-miterlimit:10;" d="M 61.129375 240.948219 C 55.602031 250.522438 55.602031 259.721656 61.129375 269.295875 " transform="matrix(1,0,0,-1,-44.145,280.749)"/>
</g>
<g clip-path="url(#clip8)" clip-rule="nonzero">
<path style="fill:none;stroke-width:2.98883;stroke-linecap:butt;stroke-linejoin:miter;stroke:rgb(0%,0%,0%);stroke-opacity:1;stroke-miterlimit:10;" d="M 108.949688 240.948219 C 114.477031 250.522438 114.477031 259.721656 108.949688 269.295875 " transform="matrix(1,0,0,-1,-44.145,280.749)"/>
</g>
<g clip-path="url(#clip9)" clip-rule="nonzero">
<path style="fill:none;stroke-width:2.98883;stroke-linecap:butt;stroke-linejoin:miter;stroke:rgb(0%,0%,0%);stroke-opacity:1;stroke-miterlimit:10;" d="M 131.996563 240.948219 C 130.500469 241.694313 129.504375 243.440406 129.504375 245.928688 L 129.504375 250.139625 C 129.504375 252.631813 128.508281 254.374 127.016094 255.120094 C 128.508281 255.870094 129.504375 257.612281 129.504375 260.104469 L 129.504375 264.3115 C 129.504375 266.803688 130.500469 268.545875 131.996563 269.295875 " transform="matrix(1,0,0,-1,-44.145,280.749)"/>
</g>
<g clip-path="url(#clip10)" clip-rule="nonzero">
<path style="fill:none;stroke-width:2.98883;stroke-linecap:butt;stroke-linejoin:miter;stroke:rgb(0%,0%,0%);stroke-opacity:1;stroke-miterlimit:10;" d="M 264.859844 240.948219 C 266.352031 241.694313 267.348125 243.440406 267.348125 245.928688 L 267.348125 250.139625 C 267.348125 252.631813 268.344219 254.374 269.840312 255.120094 C 268.344219 255.870094 267.348125 257.612281 267.348125 260.104469 L 267.348125 264.3115 C 267.348125 266.803688 266.352031 268.545875 264.859844 269.295875 " transform="matrix(1,0,0,-1,-44.145,280.749)"/>
</g>
<path style="fill:none;stroke-width:2.98883;stroke-linecap:butt;stroke-linejoin:miter;stroke:rgb(0%,0%,0%);stroke-opacity:1;stroke-miterlimit:10;" d="M 291.891094 240.948219 L 284.80125 240.948219 L 284.80125 269.295875 L 291.891094 269.295875 " transform="matrix(1,0,0,-1,-44.145,280.749)"/>
<path style="fill:none;stroke-width:2.98883;stroke-linecap:butt;stroke-linejoin:miter;stroke:rgb(0%,0%,0%);stroke-opacity:1;stroke-miterlimit:10;" d="M 374.262187 240.948219 L 381.348125 240.948219 L 381.348125 269.295875 L 374.262187 269.295875 " transform="matrix(1,0,0,-1,-44.145,280.749)"/>
</g>
</svg>
