<?xml version="1.0" encoding="UTF-8"?>
<svg xmlns="http://www.w3.org/2000/svg" xmlns:xlink="http://www.w3.org/1999/xlink" width="429.412pt" height="291.731pt" viewBox="0 0 429.412 291.731" version="1.1">
<defs>
<clipPath id="clip1">
  <path d="M 86 217 L 185 217 L 185 291.730469 L 86 291.730469 Z M 86 217 "/>
</clipPath>
<clipPath id="clip2">
  <path d="M 94 69 L 192 69 L 192 291.730469 L 94 291.730469 Z M 94 69 "/>
</clipPath>
<clipPath id="clip3">
  <path d="M 69 139 L 174 139 L 174 291.730469 L 69 291.730469 Z M 69 139 "/>
</clipPath>
<clipPath id="clip4">
  <path d="M 21 176 L 166 176 L 166 291.730469 L 21 291.730469 Z M 21 176 "/>
</clipPath>
<clipPath id="clip5">
  <path d="M 105 149 L 266 149 L 266 291.730469 L 105 291.730469 Z M 105 149 "/>
</clipPath>
</defs>
<g id="surface1">
<path style="fill:none;stroke-width:2.98883;stroke-linecap:butt;stroke-linejoin:miter;stroke:rgb(0%,0%,0%);stroke-opacity:1;stroke-miterlimit:10;" d="M 17.364031 45.709937 L 266.102312 45.709937 L 266.102312 223.584937 L 17.364031 223.584937 Z M 17.364031 45.709937 " transform="matrix(1,0,0,-1,-5.907,280.749)"/>
<path style="fill-rule:nonzero;fill:rgb(100%,69.999695%,39.99939%);fill-opacity:1;stroke-width:2.49069;stroke-linecap:butt;stroke-linejoin:miter;stroke:rgb(100%,50%,0%);stroke-opacity:1;stroke-miterlimit:10;" d="M 98.989031 255.120094 C 98.989031 262.823219 92.742937 269.069312 85.039812 269.069312 C 77.336687 269.069312 71.090594 262.823219 71.090594 255.120094 C 71.090594 247.416969 77.336687 241.174781 85.039812 241.174781 C 92.742937 241.174781 98.989031 247.416969 98.989031 255.120094 Z M 98.989031 255.120094 " transform="matrix(1,0,0,-1,-5.907,280.749)"/>
<path style="fill-rule:nonzero;fill:rgb(100%,69.999695%,39.99939%);fill-opacity:1;stroke-width:2.49069;stroke-linecap:butt;stroke-linejoin:miter;stroke:rgb(100%,50%,0%);stroke-opacity:1;stroke-miterlimit:10;" d="M 98.989031 198.428687 C 98.989031 206.131812 92.742937 212.374 85.039812 212.374 C 77.336687 212.374 71.090594 206.131812 71.090594 198.428687 C 71.090594 190.725562 77.336687 184.479469 85.039812 184.479469 C 92.742937 184.479469 98.989031 190.725562 98.989031 198.428687 Z M 98.989031 198.428687 " transform="matrix(1,0,0,-1,-5.907,280.749)"/>
<path style="fill-rule:nonzero;fill:rgb(100%,69.999695%,39.99939%);fill-opacity:1;stroke-width:2.49069;stroke-linecap:butt;stroke-linejoin:miter;stroke:rgb(100%,50%,0%);stroke-opacity:1;stroke-miterlimit:10;" d="M 169.856219 184.252906 C 169.856219 191.956031 163.610125 198.202125 155.907 198.202125 C 148.203875 198.202125 141.957781 191.956031 141.957781 184.252906 C 141.957781 176.549781 148.203875 170.307594 155.907 170.307594 C 163.610125 170.307594 169.856219 176.549781 169.856219 184.252906 Z M 169.856219 184.252906 " transform="matrix(1,0,0,-1,-5.907,280.749)"/>
<path style="fill-rule:nonzero;fill:rgb(100%,69.999695%,39.99939%);fill-opacity:1;stroke-width:2.49069;stroke-linecap:butt;stroke-linejoin:miter;stroke:rgb(100%,50%,0%);stroke-opacity:1;stroke-miterlimit:10;" d="M 56.4695 155.909156 C 56.4695 163.612281 50.223406 169.854469 42.520281 169.854469 C 34.817156 169.854469 28.571063 163.612281 28.571063 155.909156 C 28.571063 148.206031 34.817156 141.959937 42.520281 141.959937 C 50.223406 141.959937 56.4695 148.206031 56.4695 155.909156 Z M 56.4695 155.909156 " transform="matrix(1,0,0,-1,-5.907,280.749)"/>
<path style="fill-rule:nonzero;fill:rgb(100%,69.999695%,39.99939%);fill-opacity:1;stroke-width:2.49069;stroke-linecap:butt;stroke-linejoin:miter;stroke:rgb(100%,50%,0%);stroke-opacity:1;stroke-miterlimit:10;" d="M 212.37575 141.733375 C 212.37575 149.4365 206.129656 155.682594 198.426531 155.682594 C 190.723406 155.682594 184.481219 149.4365 184.481219 141.733375 C 184.481219 134.03025 190.723406 127.788062 198.426531 127.788062 C 206.129656 127.788062 212.37575 134.03025 212.37575 141.733375 Z M 212.37575 141.733375 " transform="matrix(1,0,0,-1,-5.907,280.749)"/>
<path style="fill-rule:nonzero;fill:rgb(100%,69.999695%,39.99939%);fill-opacity:1;stroke-width:2.49069;stroke-linecap:butt;stroke-linejoin:miter;stroke:rgb(100%,50%,0%);stroke-opacity:1;stroke-miterlimit:10;" d="M 127.336687 113.385719 C 127.336687 121.088844 121.090594 127.334937 113.387469 127.334937 C 105.684344 127.334937 99.43825 121.088844 99.43825 113.385719 C 99.43825 105.682594 105.684344 99.440406 113.387469 99.440406 C 121.090594 99.440406 127.336687 105.682594 127.336687 113.385719 Z M 127.336687 113.385719 " transform="matrix(1,0,0,-1,-5.907,280.749)"/>
<path style="fill-rule:nonzero;fill:rgb(100%,69.999695%,39.99939%);fill-opacity:1;stroke-width:2.49069;stroke-linecap:butt;stroke-linejoin:miter;stroke:rgb(100%,50%,0%);stroke-opacity:1;stroke-miterlimit:10;" d="M 70.641375 70.866187 C 70.641375 78.569312 64.395281 84.815406 56.692156 84.815406 C 48.989031 84.815406 42.746844 78.569312 42.746844 70.866187 C 42.746844 63.163062 48.989031 56.920875 56.692156 56.920875 C 64.395281 56.920875 70.641375 63.163062 70.641375 70.866187 Z M 70.641375 70.866187 " transform="matrix(1,0,0,-1,-5.907,280.749)"/>
<path style="fill-rule:nonzero;fill:rgb(100%,69.999695%,39.99939%);fill-opacity:1;stroke-width:2.49069;stroke-linecap:butt;stroke-linejoin:miter;stroke:rgb(100%,50%,0%);stroke-opacity:1;stroke-miterlimit:10;" d="M 254.895281 99.213844 C 254.895281 106.916969 248.653094 113.163062 240.946063 113.163062 C 233.242938 113.163062 227.00075 106.916969 227.00075 99.213844 C 227.00075 91.510719 233.242938 85.264625 240.946063 85.264625 C 248.653094 85.264625 254.895281 91.510719 254.895281 99.213844 Z M 254.895281 99.213844 " transform="matrix(1,0,0,-1,-5.907,280.749)"/>
<path style=" stroke:none;fill-rule:nonzero;fill:rgb(100%,69.999695%,39.99939%);fill-opacity:1;" d="M 149.773438 266.574219 C 149.773438 258.871094 143.53125 252.628906 135.828125 252.628906 C 128.125 252.628906 121.878906 258.871094 121.878906 266.574219 C 121.878906 274.277344 128.125 280.523438 135.828125 280.523438 C 143.53125 280.523438 149.773438 274.277344 149.773438 266.574219 Z M 149.773438 266.574219 "/>
<g clip-path="url(#clip1)" clip-rule="nonzero">
<path style="fill:none;stroke-width:2.49069;stroke-linecap:butt;stroke-linejoin:miter;stroke:rgb(100%,50%,0%);stroke-opacity:1;stroke-miterlimit:10;" d="M 155.680438 14.174781 C 155.680438 21.877906 149.43825 28.120094 141.735125 28.120094 C 134.032 28.120094 127.785906 21.877906 127.785906 14.174781 C 127.785906 6.471656 134.032 0.225562 141.735125 0.225562 C 149.43825 0.225562 155.680438 6.471656 155.680438 14.174781 Z M 155.680438 14.174781 " transform="matrix(1,0,0,-1,-5.907,280.749)"/>
</g>
<path style="fill:none;stroke-width:2.98883;stroke-linecap:butt;stroke-linejoin:miter;stroke:rgb(75%,100%,0%);stroke-opacity:1;stroke-miterlimit:10;" d="M 85.039812 239.928687 L 85.039812 213.620094 " transform="matrix(1,0,0,-1,-5.907,280.749)"/>
<path style="fill:none;stroke-width:2.98883;stroke-linecap:butt;stroke-linejoin:miter;stroke:rgb(75%,100%,0%);stroke-opacity:1;stroke-miterlimit:10;" d="M 74.297625 187.682594 L 53.262469 166.651344 " transform="matrix(1,0,0,-1,-5.907,280.749)"/>
<path style="fill:none;stroke-width:2.98883;stroke-linecap:butt;stroke-linejoin:miter;stroke:rgb(75%,100%,0%);stroke-opacity:1;stroke-miterlimit:10;" d="M 89.848406 183.999 L 108.578875 127.815406 " transform="matrix(1,0,0,-1,-5.907,280.749)"/>
<path style="fill:none;stroke-width:2.98883;stroke-linecap:butt;stroke-linejoin:miter;stroke:rgb(75%,100%,0%);stroke-opacity:1;stroke-miterlimit:10;" d="M 99.965594 195.444312 L 140.981219 187.237281 " transform="matrix(1,0,0,-1,-5.907,280.749)"/>
<path style="fill:none;stroke-width:2.98883;stroke-linecap:butt;stroke-linejoin:miter;stroke:rgb(75%,100%,0%);stroke-opacity:1;stroke-miterlimit:10;" d="M 166.649188 173.510719 L 187.684344 152.475562 " transform="matrix(1,0,0,-1,-5.907,280.749)"/>
<g clip-path="url(#clip2)" clip-rule="nonzero">
<path style="fill:none;stroke-width:2.98883;stroke-linecap:butt;stroke-linejoin:miter;stroke:rgb(75%,100%,0%);stroke-opacity:1;stroke-miterlimit:10;" d="M 154.645281 169.108375 L 142.996844 29.319312 " transform="matrix(1,0,0,-1,-5.907,280.749)"/>
</g>
<path style="fill:none;stroke-width:2.98883;stroke-linecap:butt;stroke-linejoin:miter;stroke:rgb(75%,100%,0%);stroke-opacity:1;stroke-miterlimit:10;" d="M 57.653094 154.53025 L 183.293719 143.108375 " transform="matrix(1,0,0,-1,-5.907,280.749)"/>
<path style="fill:none;stroke-width:2.98883;stroke-linecap:butt;stroke-linejoin:miter;stroke:rgb(75%,100%,0%);stroke-opacity:1;stroke-miterlimit:10;" d="M 55.547625 148.088844 L 100.301531 121.237281 " transform="matrix(1,0,0,-1,-5.907,280.749)"/>
<path style="fill:none;stroke-width:2.98883;stroke-linecap:butt;stroke-linejoin:miter;stroke:rgb(75%,100%,0%);stroke-opacity:1;stroke-miterlimit:10;" d="M 45.020281 140.90525 L 54.192156 85.870094 " transform="matrix(1,0,0,-1,-5.907,280.749)"/>
<path style="fill:none;stroke-width:2.98883;stroke-linecap:butt;stroke-linejoin:miter;stroke:rgb(75%,100%,0%);stroke-opacity:1;stroke-miterlimit:10;" d="M 209.172625 130.991187 L 230.203875 109.956031 " transform="matrix(1,0,0,-1,-5.907,280.749)"/>
<g clip-path="url(#clip3)" clip-rule="nonzero">
<path style="fill:none;stroke-width:2.98883;stroke-linecap:butt;stroke-linejoin:miter;stroke:rgb(75%,100%,0%);stroke-opacity:1;stroke-miterlimit:10;" d="M 117.567156 98.756812 L 137.555438 28.803687 " transform="matrix(1,0,0,-1,-5.907,280.749)"/>
</g>
<path style="fill:none;stroke-width:2.98883;stroke-linecap:butt;stroke-linejoin:miter;stroke:rgb(75%,100%,0%);stroke-opacity:1;stroke-miterlimit:10;" d="M 101.172625 104.229469 L 68.848406 79.983375 " transform="matrix(1,0,0,-1,-5.907,280.749)"/>
<g clip-path="url(#clip4)" clip-rule="nonzero">
<path style="fill:none;stroke-width:2.98883;stroke-linecap:butt;stroke-linejoin:miter;stroke:rgb(75%,100%,0%);stroke-opacity:1;stroke-miterlimit:10;" d="M 69.37575 62.413062 L 129.055438 22.627906 " transform="matrix(1,0,0,-1,-5.907,280.749)"/>
</g>
<g clip-path="url(#clip5)" clip-rule="nonzero">
<path style="fill:none;stroke-width:2.98883;stroke-linecap:butt;stroke-linejoin:miter;stroke:rgb(75%,100%,0%);stroke-opacity:1;stroke-miterlimit:10;" d="M 229.371844 89.291969 L 153.309344 24.096656 " transform="matrix(1,0,0,-1,-5.907,280.749)"/>
</g>
<path style="fill-rule:nonzero;fill:rgb(100%,19.999695%,19.999695%);fill-opacity:1;stroke-width:1.59404;stroke-linecap:butt;stroke-linejoin:miter;stroke:rgb(75%,0%,25%);stroke-opacity:1;stroke-miterlimit:10;" d="M 169.856219 255.120094 C 169.856219 262.823219 163.610125 269.069312 155.907 269.069312 C 148.203875 269.069312 141.957781 262.823219 141.957781 255.120094 C 141.957781 247.416969 148.203875 241.174781 155.907 241.174781 C 163.610125 241.174781 169.856219 247.416969 169.856219 255.120094 Z M 169.856219 255.120094 " transform="matrix(1,0,0,-1,-5.907,280.749)"/>
<path style="fill-rule:nonzero;fill:rgb(100%,19.999695%,19.999695%);fill-opacity:1;stroke-width:1.59404;stroke-linecap:butt;stroke-linejoin:miter;stroke:rgb(75%,0%,25%);stroke-opacity:1;stroke-miterlimit:10;" d="M 212.37575 255.120094 C 212.37575 262.823219 206.129656 269.069312 198.426531 269.069312 C 190.723406 269.069312 184.481219 262.823219 184.481219 255.120094 C 184.481219 247.416969 190.723406 241.174781 198.426531 241.174781 C 206.129656 241.174781 212.37575 247.416969 212.37575 255.120094 Z M 212.37575 255.120094 " transform="matrix(1,0,0,-1,-5.907,280.749)"/>
<path style="fill-rule:nonzero;fill:rgb(100%,19.999695%,19.999695%);fill-opacity:1;stroke-width:1.59404;stroke-linecap:butt;stroke-linejoin:miter;stroke:rgb(75%,0%,25%);stroke-opacity:1;stroke-miterlimit:10;" d="M 254.895281 255.120094 C 254.895281 262.823219 248.653094 269.069312 240.946063 269.069312 C 233.242938 269.069312 227.00075 262.823219 227.00075 255.120094 C 227.00075 247.416969 233.242938 241.174781 240.946063 241.174781 C 248.653094 241.174781 254.895281 247.416969 254.895281 255.120094 Z M 254.895281 255.120094 " transform="matrix(1,0,0,-1,-5.907,280.749)"/>
<path style="fill:none;stroke-width:2.98883;stroke-linecap:butt;stroke-linejoin:miter;stroke:rgb(75%,100%,0%);stroke-opacity:1;stroke-miterlimit:10;" d="M 155.907 240.377906 L 155.907 199.448219 " transform="matrix(1,0,0,-1,-5.907,280.749)"/>
<path style="fill:none;stroke-width:2.98883;stroke-linecap:butt;stroke-linejoin:miter;stroke:rgb(75%,100%,0%);stroke-opacity:1;stroke-miterlimit:10;" d="M 198.426531 240.377906 L 198.426531 156.928687 " transform="matrix(1,0,0,-1,-5.907,280.749)"/>
<path style="fill:none;stroke-width:2.98883;stroke-linecap:butt;stroke-linejoin:miter;stroke:rgb(75%,100%,0%);stroke-opacity:1;stroke-miterlimit:10;" d="M 240.946063 240.377906 L 240.946063 114.40525 " transform="matrix(1,0,0,-1,-5.907,280.749)"/>
<path style="fill-rule:nonzero;fill:rgb(69.999695%,39.99939%,69.999695%);fill-opacity:1;stroke-width:1.59404;stroke-linecap:butt;stroke-linejoin:miter;stroke:rgb(50%,0%,50%);stroke-opacity:1;stroke-miterlimit:10;" d="M 325.762469 255.120094 C 325.762469 262.823219 319.516375 269.069312 311.81325 269.069312 C 304.110125 269.069312 297.867937 262.823219 297.867937 255.120094 C 297.867937 247.416969 304.110125 241.174781 311.81325 241.174781 C 319.516375 241.174781 325.762469 247.416969 325.762469 255.120094 Z M 325.762469 255.120094 " transform="matrix(1,0,0,-1,-5.907,280.749)"/>
<path style="fill-rule:nonzero;fill:rgb(69.999695%,39.99939%,69.999695%);fill-opacity:1;stroke-width:1.59404;stroke-linecap:butt;stroke-linejoin:miter;stroke:rgb(50%,0%,50%);stroke-opacity:1;stroke-miterlimit:10;" d="M 368.282 255.120094 C 368.282 262.823219 362.039812 269.069312 354.336687 269.069312 C 346.633562 269.069312 340.387469 262.823219 340.387469 255.120094 C 340.387469 247.416969 346.633562 241.174781 354.336687 241.174781 C 362.039812 241.174781 368.282 247.416969 368.282 255.120094 Z M 368.282 255.120094 " transform="matrix(1,0,0,-1,-5.907,280.749)"/>
<path style="fill-rule:nonzero;fill:rgb(69.999695%,39.99939%,69.999695%);fill-opacity:1;stroke-width:1.59404;stroke-linecap:butt;stroke-linejoin:miter;stroke:rgb(50%,0%,50%);stroke-opacity:1;stroke-miterlimit:10;" d="M 410.801531 255.120094 C 410.801531 262.823219 404.559344 269.069312 396.856219 269.069312 C 389.153094 269.069312 382.907 262.823219 382.907 255.120094 C 382.907 247.416969 389.153094 241.174781 396.856219 241.174781 C 404.559344 241.174781 410.801531 247.416969 410.801531 255.120094 Z M 410.801531 255.120094 " transform="matrix(1,0,0,-1,-5.907,280.749)"/>
<path style="fill:none;stroke-width:2.98883;stroke-linecap:butt;stroke-linejoin:miter;stroke:rgb(0%,0%,0%);stroke-opacity:1;stroke-miterlimit:10;" d="M 61.129656 240.948219 C 55.602312 250.522437 55.602312 259.721656 61.129656 269.295875 " transform="matrix(1,0,0,-1,-5.907,280.749)"/>
<path style="fill:none;stroke-width:2.98883;stroke-linecap:butt;stroke-linejoin:miter;stroke:rgb(0%,0%,0%);stroke-opacity:1;stroke-miterlimit:10;" d="M 108.949969 240.948219 C 114.477312 250.522437 114.477312 259.721656 108.949969 269.295875 " transform="matrix(1,0,0,-1,-5.907,280.749)"/>
<path style="fill:none;stroke-width:2.98883;stroke-linecap:butt;stroke-linejoin:miter;stroke:rgb(0%,0%,0%);stroke-opacity:1;stroke-miterlimit:10;" d="M 131.996844 240.948219 C 130.50075 241.694312 129.504656 243.440406 129.504656 245.928687 L 129.504656 250.139625 C 129.504656 252.631812 128.508563 254.374 127.016375 255.120094 C 128.508563 255.870094 129.504656 257.612281 129.504656 260.104469 L 129.504656 264.3115 C 129.504656 266.803687 130.50075 268.545875 131.996844 269.295875 " transform="matrix(1,0,0,-1,-5.907,280.749)"/>
<path style="fill:none;stroke-width:2.98883;stroke-linecap:butt;stroke-linejoin:miter;stroke:rgb(0%,0%,0%);stroke-opacity:1;stroke-miterlimit:10;" d="M 264.860125 240.948219 C 266.352312 241.694312 267.348406 243.440406 267.348406 245.928687 L 267.348406 250.139625 C 267.348406 252.631812 268.3445 254.374 269.840594 255.120094 C 268.3445 255.870094 267.348406 257.612281 267.348406 260.104469 L 267.348406 264.3115 C 267.348406 266.803687 266.352312 268.545875 264.860125 269.295875 " transform="matrix(1,0,0,-1,-5.907,280.749)"/>
<path style="fill:none;stroke-width:2.98883;stroke-linecap:butt;stroke-linejoin:miter;stroke:rgb(0%,0%,0%);stroke-opacity:1;stroke-miterlimit:10;" d="M 291.887469 240.948219 L 284.801531 240.948219 L 284.801531 269.295875 L 291.887469 269.295875 " transform="matrix(1,0,0,-1,-5.907,280.749)"/>
<path style="fill:none;stroke-width:2.98883;stroke-linecap:butt;stroke-linejoin:miter;stroke:rgb(0%,0%,0%);stroke-opacity:1;stroke-miterlimit:10;" d="M 416.782 240.948219 L 423.867937 240.948219 L 423.867937 269.295875 L 416.782 269.295875 " transform="matrix(1,0,0,-1,-5.907,280.749)"/>
</g>
</svg>
