<?xml version="1.0" encoding="UTF-8"?>
<svg xmlns="http://www.w3.org/2000/svg" xmlns:xlink="http://www.w3.org/1999/xlink" width="50.311pt" height="50.311pt" viewBox="0 0 50.311 50.311" version="1.1">
<g id="surface1">
<path style=" stroke:none;fill-rule:nonzero;fill:rgb(100%,69.999695%,39.99939%);fill-opacity:1;" d="M 39.105469 25.152344 C 39.105469 17.449219 32.859375 11.203125 25.15625 11.203125 C 17.453125 11.203125 11.207031 17.449219 11.207031 25.152344 C 11.207031 32.855469 17.453125 39.097656 25.15625 39.097656 C 32.859375 39.097656 39.105469 32.855469 39.105469 25.152344 Z M 39.105469 25.152344 "/>
<path style="fill:none;stroke-width:2.49069;stroke-linecap:butt;stroke-linejoin:miter;stroke:rgb(100%,50%,0%);stroke-opacity:1;stroke-miterlimit:10;" d="M 98.989469 255.120656 C 98.989469 262.823781 92.743375 269.069875 85.04025 269.069875 C 77.337125 269.069875 71.091031 262.823781 71.091031 255.120656 C 71.091031 247.417531 77.337125 241.175344 85.04025 241.175344 C 92.743375 241.175344 98.989469 247.417531 98.989469 255.120656 Z M 98.989469 255.120656 " transform="matrix(1,0,0,-1,-59.884,280.273)"/>
</g>
</svg>
