<?xml version="1.0" encoding="UTF-8"?>
<svg xmlns="http://www.w3.org/2000/svg" xmlns:xlink="http://www.w3.org/1999/xlink" width="391.174pt" height="53.079pt" viewBox="0 0 391.174 53.079" version="1.1">
<defs>
<clipPath id="clip1">
  <path d="M 0 0 L 90 0 L 90 53.078125 L 0 53.078125 Z M 0 0 "/>
</clipPath>
<clipPath id="clip2">
  <path d="M 34 0 L 133 0 L 133 53.078125 L 34 53.078125 Z M 34 0 "/>
</clipPath>
<clipPath id="clip3">
  <path d="M 118 0 L 191 0 L 191 53.078125 L 118 53.078125 Z M 118 0 "/>
</clipPath>
<clipPath id="clip4">
  <path d="M 160 0 L 233 0 L 233 53.078125 L 160 53.078125 Z M 160 0 "/>
</clipPath>
<clipPath id="clip5">
  <path d="M 274 0 L 349 0 L 349 53.078125 L 274 53.078125 Z M 274 0 "/>
</clipPath>
<clipPath id="clip6">
  <path d="M 323 0 L 391 0 L 391 53.078125 L 323 53.078125 Z M 323 0 "/>
</clipPath>
<clipPath id="clip7">
  <path d="M 0 0 L 60 0 L 60 53.078125 L 0 53.078125 Z M 0 0 "/>
</clipPath>
<clipPath id="clip8">
  <path d="M 65 0 L 154 0 L 154 53.078125 L 65 53.078125 Z M 65 0 "/>
</clipPath>
<clipPath id="clip9">
  <path d="M 83 0 L 173 0 L 173 53.078125 L 83 53.078125 Z M 83 0 "/>
</clipPath>
<clipPath id="clip10">
  <path d="M 220 0 L 311 0 L 311 53.078125 L 220 53.078125 Z M 220 0 "/>
</clipPath>
</defs>
<g id="surface1">
<path style=" stroke:none;fill-rule:nonzero;fill:rgb(100%,69.999695%,39.99939%);fill-opacity:1;" d="M 40.894531 12.03125 L 35.429688 18.457031 L 27.628906 21.667969 L 32.050781 28.855469 L 32.695312 37.265625 L 40.894531 35.28125 L 49.09375 37.265625 L 49.738281 28.855469 L 54.160156 21.667969 L 46.363281 18.457031 Z M 40.894531 12.03125 "/>
<g clip-path="url(#clip1)" clip-rule="nonzero">
<path style="fill:none;stroke-width:2.49069;stroke-linecap:butt;stroke-linejoin:miter;stroke:rgb(100%,50%,0%);stroke-opacity:1;stroke-miterlimit:10;" d="M 42.519531 269.06975 L 37.054688 262.643969 L 29.253906 259.433031 L 33.675781 252.245531 L 34.320312 243.835375 L 42.519531 245.81975 L 50.71875 243.835375 L 51.363281 252.245531 L 55.785156 259.433031 L 47.988281 262.643969 Z M 42.519531 269.06975 " transform="matrix(1,0,0,-1,-1.625,281.101)"/>
</g>
<path style=" stroke:none;fill-rule:nonzero;fill:rgb(100%,69.999695%,39.99939%);fill-opacity:1;" d="M 97.363281 25.980469 C 97.363281 18.277344 91.117188 12.03125 83.414062 12.03125 C 75.710938 12.03125 69.46875 18.277344 69.46875 25.980469 C 69.46875 33.683594 75.710938 39.925781 83.414062 39.925781 C 91.117188 39.925781 97.363281 33.683594 97.363281 25.980469 Z M 97.363281 25.980469 "/>
<g clip-path="url(#clip2)" clip-rule="nonzero">
<path style="fill:none;stroke-width:2.49069;stroke-linecap:butt;stroke-linejoin:miter;stroke:rgb(100%,50%,0%);stroke-opacity:1;stroke-miterlimit:10;" d="M 98.988281 255.120531 C 98.988281 262.823656 92.742188 269.06975 85.039062 269.06975 C 77.335938 269.06975 71.09375 262.823656 71.09375 255.120531 C 71.09375 247.417406 77.335938 241.175219 85.039062 241.175219 C 92.742188 241.175219 98.988281 247.417406 98.988281 255.120531 Z M 98.988281 255.120531 " transform="matrix(1,0,0,-1,-1.625,281.101)"/>
</g>
<path style=" stroke:none;fill-rule:nonzero;fill:rgb(100%,19.999695%,19.999695%);fill-opacity:1;" d="M 157.910156 14.816406 C 157.5 13.277344 155.875 12.03125 154.28125 12.03125 C 152.691406 12.03125 151.066406 13.277344 150.65625 14.816406 C 149.417969 13.8125 147.371094 13.761719 146.082031 14.695312 C 144.796875 15.628906 144.214844 17.59375 144.785156 19.078125 C 143.195312 18.996094 141.507812 20.15625 141.015625 21.667969 C 140.527344 23.183594 141.207031 25.113281 142.542969 25.980469 C 141.207031 26.847656 140.523438 28.777344 141.015625 30.289062 C 141.507812 31.804688 143.195312 32.964844 144.785156 32.878906 C 144.214844 34.367188 144.796875 36.328125 146.082031 37.265625 C 147.371094 38.199219 149.417969 38.144531 150.65625 37.144531 C 151.066406 38.679688 152.691406 39.929688 154.28125 39.929688 C 155.875 39.929688 157.5 38.679688 157.910156 37.144531 C 159.148438 38.144531 161.195312 38.199219 162.480469 37.265625 C 163.769531 36.328125 164.351562 34.367188 163.78125 32.878906 C 165.367188 32.964844 167.054688 31.804688 167.546875 30.289062 C 168.039062 28.777344 167.355469 26.847656 166.023438 25.980469 C 167.355469 25.113281 168.039062 23.183594 167.546875 21.667969 C 167.054688 20.15625 165.367188 18.996094 163.78125 19.078125 C 164.351562 17.59375 163.769531 15.628906 162.480469 14.695312 C 161.195312 13.761719 159.148438 13.8125 157.910156 14.816406 Z M 157.910156 14.816406 "/>
<g clip-path="url(#clip3)" clip-rule="nonzero">
<path style="fill:none;stroke-width:1.59404;stroke-linecap:butt;stroke-linejoin:miter;stroke:rgb(75%,0%,25%);stroke-opacity:1;stroke-miterlimit:10;" d="M 159.535156 266.284594 C 159.125 267.823656 157.5 269.06975 155.90625 269.06975 C 154.316406 269.06975 152.691406 267.823656 152.28125 266.284594 C 151.042969 267.2885 148.996094 267.339281 147.707031 266.405687 C 146.421875 265.472094 145.839844 263.50725 146.410156 262.022875 C 144.820312 262.104906 143.132812 260.94475 142.640625 259.433031 C 142.152344 257.917406 142.832031 255.987719 144.167969 255.120531 C 142.832031 254.253344 142.148438 252.323656 142.640625 250.811937 C 143.132812 249.296312 144.820312 248.136156 146.410156 248.222094 C 145.839844 246.733812 146.421875 244.772875 147.707031 243.835375 C 148.996094 242.901781 151.042969 242.956469 152.28125 243.956469 C 152.691406 242.421312 154.316406 241.171312 155.90625 241.171312 C 157.5 241.171312 159.125 242.421312 159.535156 243.956469 C 160.773438 242.956469 162.820312 242.901781 164.105469 243.835375 C 165.394531 244.772875 165.976562 246.733812 165.40625 248.222094 C 166.992188 248.136156 168.679688 249.296312 169.171875 250.811937 C 169.664062 252.323656 168.980469 254.253344 167.648438 255.120531 C 168.980469 255.987719 169.664062 257.917406 169.171875 259.433031 C 168.679688 260.94475 166.992188 262.104906 165.40625 262.022875 C 165.976562 263.50725 165.394531 265.472094 164.105469 266.405687 C 162.820312 267.339281 160.773438 267.2885 159.535156 266.284594 Z M 159.535156 266.284594 " transform="matrix(1,0,0,-1,-1.625,281.101)"/>
</g>
<path style=" stroke:none;fill-rule:nonzero;fill:rgb(100%,19.999695%,19.999695%);fill-opacity:1;" d="M 196.800781 12.03125 L 183.539062 21.667969 L 188.605469 37.265625 L 205 37.265625 L 210.066406 21.667969 Z M 196.800781 12.03125 "/>
<g clip-path="url(#clip4)" clip-rule="nonzero">
<path style="fill:none;stroke-width:1.59404;stroke-linecap:butt;stroke-linejoin:miter;stroke:rgb(75%,0%,25%);stroke-opacity:1;stroke-miterlimit:10;" d="M 198.425781 269.06975 L 185.164062 259.433031 L 190.230469 243.835375 L 206.625 243.835375 L 211.691406 259.433031 Z M 198.425781 269.06975 " transform="matrix(1,0,0,-1,-1.625,281.101)"/>
</g>
<path style="fill-rule:nonzero;fill:rgb(100%,19.999695%,19.999695%);fill-opacity:1;stroke-width:1.59404;stroke-linecap:butt;stroke-linejoin:miter;stroke:rgb(75%,0%,25%);stroke-opacity:1;stroke-miterlimit:10;" d="M 227 241.175219 L 254.894531 241.175219 L 254.894531 269.06975 L 227 269.06975 Z M 227 241.175219 " transform="matrix(1,0,0,-1,-1.625,281.101)"/>
<path style=" stroke:none;fill-rule:nonzero;fill:rgb(69.999695%,39.99939%,69.999695%);fill-opacity:1;" d="M 310.191406 11.144531 L 309.328125 21.363281 L 306.128906 15.492188 L 307.71875 21.988281 L 298.023438 12.632812 L 306.441406 23.148438 L 298.738281 20.277344 L 305.671875 24.695312 L 296.90625 24.75 L 305.515625 26.414062 L 298.574219 29.285156 L 305.988281 28.074219 L 296.5625 36.269531 L 307.027344 29.449219 L 305.101562 34.195312 L 308.492188 30.359375 L 307.136719 42.316406 L 310.191406 30.675781 L 312.457031 38.101562 L 311.886719 30.359375 L 315.320312 34.261719 L 313.351562 29.449219 L 320.917969 34.082031 L 314.394531 28.074219 L 326.449219 30.605469 L 314.867188 26.414062 L 320.109375 25.058594 L 314.707031 24.695312 L 323.875 19.167969 L 313.9375 23.148438 L 319.195312 16.101562 L 312.660156 21.988281 L 316.085938 10.757812 L 311.050781 21.363281 Z M 310.191406 11.144531 "/>
<g clip-path="url(#clip5)" clip-rule="nonzero">
<path style="fill:none;stroke-width:1.59404;stroke-linecap:butt;stroke-linejoin:miter;stroke:rgb(50%,0%,50%);stroke-opacity:1;stroke-miterlimit:10;" d="M 311.816406 269.956469 L 310.953125 259.737719 L 307.753906 265.608812 L 309.34375 259.112719 L 299.648438 268.468187 L 308.066406 257.952562 L 300.363281 260.823656 L 307.296875 256.405687 L 298.53125 256.351 L 307.140625 254.686937 L 300.199219 251.815844 L 307.613281 253.026781 L 298.1875 244.831469 L 308.652344 251.651781 L 306.726562 246.905687 L 310.117188 250.741625 L 308.761719 238.784594 L 311.816406 250.425219 L 314.082031 242.999437 L 313.511719 250.741625 L 316.945312 246.839281 L 314.976562 251.651781 L 322.542969 247.018969 L 316.019531 253.026781 L 328.074219 250.495531 L 316.492188 254.686937 L 321.734375 256.042406 L 316.332031 256.405687 L 325.5 261.933031 L 315.5625 257.952562 L 320.820312 264.999437 L 314.285156 259.112719 L 317.710938 270.343187 L 312.675781 259.737719 Z M 311.816406 269.956469 " transform="matrix(1,0,0,-1,-1.625,281.101)"/>
</g>
<path style=" stroke:none;fill-rule:nonzero;fill:rgb(69.999695%,39.99939%,69.999695%);fill-opacity:1;" d="M 368.132812 25.980469 L 346.214844 13.324219 L 346.214844 38.632812 Z M 368.132812 25.980469 "/>
<g clip-path="url(#clip6)" clip-rule="nonzero">
<path style="fill:none;stroke-width:1.59404;stroke-linecap:butt;stroke-linejoin:miter;stroke:rgb(50%,0%,50%);stroke-opacity:1;stroke-miterlimit:10;" d="M 369.757812 255.120531 L 347.839844 267.776781 L 347.839844 242.468187 Z M 369.757812 255.120531 " transform="matrix(1,0,0,-1,-1.625,281.101)"/>
</g>
<g clip-path="url(#clip7)" clip-rule="nonzero">
<path style="fill:none;stroke-width:2.98883;stroke-linecap:butt;stroke-linejoin:miter;stroke:rgb(0%,0%,0%);stroke-opacity:1;stroke-miterlimit:10;" d="M 18.609375 240.948656 C 13.082031 250.522875 13.082031 259.722094 18.609375 269.296312 " transform="matrix(1,0,0,-1,-1.625,281.101)"/>
</g>
<g clip-path="url(#clip8)" clip-rule="nonzero">
<path style="fill:none;stroke-width:2.98883;stroke-linecap:butt;stroke-linejoin:miter;stroke:rgb(0%,0%,0%);stroke-opacity:1;stroke-miterlimit:10;" d="M 108.949219 240.948656 C 114.476562 250.522875 114.476562 259.722094 108.949219 269.296312 " transform="matrix(1,0,0,-1,-1.625,281.101)"/>
</g>
<g clip-path="url(#clip9)" clip-rule="nonzero">
<path style="fill:none;stroke-width:2.98883;stroke-linecap:butt;stroke-linejoin:miter;stroke:rgb(0%,0%,0%);stroke-opacity:1;stroke-miterlimit:10;" d="M 131.996094 240.948656 C 130.503906 241.69475 129.507812 243.436937 129.507812 245.929125 L 129.507812 250.140062 C 129.507812 252.63225 128.511719 254.374437 127.015625 255.120531 C 128.511719 255.866625 129.507812 257.612719 129.507812 260.101 L 129.507812 264.311937 C 129.507812 266.804125 130.503906 268.546312 131.996094 269.296312 " transform="matrix(1,0,0,-1,-1.625,281.101)"/>
</g>
<g clip-path="url(#clip10)" clip-rule="nonzero">
<path style="fill:none;stroke-width:2.98883;stroke-linecap:butt;stroke-linejoin:miter;stroke:rgb(0%,0%,0%);stroke-opacity:1;stroke-miterlimit:10;" d="M 264.859375 240.948656 C 266.351562 241.69475 267.347656 243.436937 267.347656 245.929125 L 267.347656 250.140062 C 267.347656 252.63225 268.34375 254.374437 269.839844 255.120531 C 268.34375 255.866625 267.347656 257.612719 267.347656 260.101 L 267.347656 264.311937 C 267.347656 266.804125 266.351562 268.546312 264.859375 269.296312 " transform="matrix(1,0,0,-1,-1.625,281.101)"/>
</g>
<path style="fill:none;stroke-width:2.98883;stroke-linecap:butt;stroke-linejoin:miter;stroke:rgb(0%,0%,0%);stroke-opacity:1;stroke-miterlimit:10;" d="M 291.890625 240.948656 L 284.800781 240.948656 L 284.800781 269.296312 L 291.890625 269.296312 " transform="matrix(1,0,0,-1,-1.625,281.101)"/>
<path style="fill:none;stroke-width:2.98883;stroke-linecap:butt;stroke-linejoin:miter;stroke:rgb(0%,0%,0%);stroke-opacity:1;stroke-miterlimit:10;" d="M 374.261719 240.948656 L 381.347656 240.948656 L 381.347656 269.296312 L 374.261719 269.296312 " transform="matrix(1,0,0,-1,-1.625,281.101)"/>
</g>
</svg>
