<?xml version="1.0" encoding="UTF-8"?>
<svg xmlns="http://www.w3.org/2000/svg" xmlns:xlink="http://www.w3.org/1999/xlink" width="50.311pt" height="107.004pt" viewBox="0 0 50.311 107.004" version="1.1">
<defs>
<clipPath id="clip1">
  <path d="M 0 0 L 50.3125 0 L 50.3125 75 L 0 75 Z M 0 0 "/>
</clipPath>
<clipPath id="clip2">
  <path d="M 0 32 L 50.3125 32 L 50.3125 107.003906 L 0 107.003906 Z M 0 32 "/>
</clipPath>
</defs>
<g id="surface1">
<path style=" stroke:none;fill-rule:nonzero;fill:rgb(100%,69.999695%,39.99939%);fill-opacity:1;" d="M 39.105469 25.152344 C 39.105469 17.449219 32.859375 11.203125 25.15625 11.203125 C 17.453125 11.203125 11.207031 17.449219 11.207031 25.152344 C 11.207031 32.855469 17.453125 39.097656 25.15625 39.097656 C 32.859375 39.097656 39.105469 32.855469 39.105469 25.152344 Z M 39.105469 25.152344 "/>
<g clip-path="url(#clip1)" clip-rule="nonzero">
<path style="fill:none;stroke-width:2.49069;stroke-linecap:butt;stroke-linejoin:miter;stroke:rgb(100%,50%,0%);stroke-opacity:1;stroke-miterlimit:10;" d="M 98.989469 255.120656 C 98.989469 262.823781 92.743375 269.069875 85.04025 269.069875 C 77.337125 269.069875 71.091031 262.823781 71.091031 255.120656 C 71.091031 247.417531 77.337125 241.175344 85.04025 241.175344 C 92.743375 241.175344 98.989469 247.417531 98.989469 255.120656 Z M 98.989469 255.120656 " transform="matrix(1,0,0,-1,-59.884,280.273)"/>
</g>
<path style=" stroke:none;fill-rule:nonzero;fill:rgb(100%,69.999695%,39.99939%);fill-opacity:1;" d="M 39.105469 81.84375 C 39.105469 74.140625 32.859375 67.898438 25.15625 67.898438 C 17.453125 67.898438 11.207031 74.140625 11.207031 81.84375 C 11.207031 89.546875 17.453125 95.792969 25.15625 95.792969 C 32.859375 95.792969 39.105469 89.546875 39.105469 81.84375 Z M 39.105469 81.84375 "/>
<g clip-path="url(#clip2)" clip-rule="nonzero">
<path style="fill:none;stroke-width:2.49069;stroke-linecap:butt;stroke-linejoin:miter;stroke:rgb(100%,50%,0%);stroke-opacity:1;stroke-miterlimit:10;" d="M 98.989469 198.42925 C 98.989469 206.132375 92.743375 212.374562 85.04025 212.374562 C 77.337125 212.374562 71.091031 206.132375 71.091031 198.42925 C 71.091031 190.726125 77.337125 184.480031 85.04025 184.480031 C 92.743375 184.480031 98.989469 190.726125 98.989469 198.42925 Z M 98.989469 198.42925 " transform="matrix(1,0,0,-1,-59.884,280.273)"/>
</g>
</g>
</svg>
